<svg width="24" height="24" viewBox="0 0 24 24" fill="none" xmlns="http://www.w3.org/2000/svg">
<path d="M21.01 11.2188V15.7087C21.01 20.1987 19.22 21.9988 14.72 21.9988H9.33002C8.75002 21.9988 8.21998 21.9688 7.72998 21.8988" stroke="#9A9898" stroke-width="1.5" stroke-linecap="round" stroke-linejoin="round"/>
<path d="M3.04004 15.5188V11.2188" stroke="#9A9898" stroke-width="1.5" stroke-linecap="round" stroke-linejoin="round"/>
<path d="M12.0299 12C13.8599 12 15.2099 10.5101 15.0299 8.68005L14.3599 2H9.68989L9.01991 8.68005C8.83991 10.5101 10.1999 12 12.0299 12Z" stroke="#9A9898" stroke-width="1.5" stroke-linecap="round" stroke-linejoin="round"/>
<path d="M18.3301 12C20.3501 12 21.8301 10.36 21.6301 8.34998L21.35 5.59998C20.99 2.99998 19.9901 2 17.3701 2H14.3201L15.0201 9.01001C15.2001 10.66 16.6801 12 18.3301 12Z" stroke="#9A9898" stroke-width="1.5" stroke-linecap="round" stroke-linejoin="round"/>
<path d="M5.67004 12C7.32004 12 8.81003 10.66 8.97003 9.01001L9.19006 6.80005L9.67004 2H6.62005C4.00005 2 3.00007 2.99998 2.64007 5.59998L2.36004 8.34998C2.16004 10.36 3.65004 12 5.67004 12Z" stroke="#9A9898" stroke-width="1.5" stroke-linecap="round" stroke-linejoin="round"/>
<path d="M9 19C9 19.75 8.78998 20.4601 8.41998 21.0601C8.22998 21.3801 7.99998 21.67 7.72998 21.9C7.69998 21.94 7.67 21.97 7.63 22C6.93 22.63 6.01 23 5 23C3.78 23 2.68997 22.45 1.96997 21.59C1.94997 21.56 1.92002 21.54 1.90002 21.51C1.78002 21.37 1.67002 21.2201 1.58002 21.0601C1.21002 20.4601 1 19.75 1 19C1 17.74 1.58 16.61 2.5 15.88C2.67 15.74 2.84998 15.62 3.03998 15.52C3.61998 15.19 4.29 15 5 15C6 15 6.89998 15.36 7.59998 15.97C7.71998 16.06 7.82999 16.17 7.92999 16.28C8.58999 17 9 17.95 9 19Z" stroke="#9A9898" stroke-width="1.5" stroke-miterlimit="10" stroke-linecap="round" stroke-linejoin="round"/>
<path d="M6.48975 18.9805H3.50977" stroke="#9A9898" stroke-width="1.5" stroke-miterlimit="10" stroke-linecap="round" stroke-linejoin="round"/>
<path d="M5 17.5195V20.5095" stroke="#9A9898" stroke-width="1.5" stroke-miterlimit="10" stroke-linecap="round" stroke-linejoin="round"/>
</svg>
