<svg width="24" height="24" viewBox="0 0 24 24" fill="none" xmlns="http://www.w3.org/2000/svg">
<path d="M12.92 2.25984L19.43 5.76984C20.19 6.17984 20.19 7.34984 19.43 7.75984L12.92 11.2698C12.34 11.5798 11.66 11.5798 11.08 11.2698L4.57 7.75984C3.81 7.34984 3.81 6.17984 4.57 5.76984L11.08 2.25984C11.66 1.94984 12.34 1.94984 12.92 2.25984Z" stroke="#9A9898" stroke-width="1.5" stroke-linecap="round" stroke-linejoin="round"/>
<path d="M3.61 10.1277L9.66 13.1577C10.41 13.5377 10.89 14.3077 10.89 15.1477V20.8677C10.89 21.6977 10.02 22.2277 9.28 21.8577L3.23 18.8277C2.48 18.4477 2 17.6777 2 16.8377V11.1177C2 10.2877 2.87 9.75773 3.61 10.1277Z" stroke="#9A9898" stroke-width="1.5" stroke-linecap="round" stroke-linejoin="round"/>
<path d="M20.3899 10.1277L14.3399 13.1577C13.5899 13.5377 13.1099 14.3077 13.1099 15.1477V20.8677C13.1099 21.6977 13.9799 22.2277 14.7199 21.8577L20.7699 18.8277C21.5199 18.4477 21.9999 17.6777 21.9999 16.8377V11.1177C21.9999 10.2877 21.1299 9.75773 20.3899 10.1277Z" stroke="#9A9898" stroke-width="1.5" stroke-linecap="round" stroke-linejoin="round"/>
</svg>
