<svg width="24" height="24" viewBox="0 0 24 24" fill="none" xmlns="http://www.w3.org/2000/svg">
<path d="M10.1098 11.1523H7.45981C6.82981 11.1523 6.31982 11.6623 6.31982 12.2923V17.4123H10.1098V11.1523V11.1523Z" stroke="#9A9898" stroke-width="1.5" stroke-miterlimit="10" stroke-linecap="round" stroke-linejoin="round"/>
<path d="M12.7611 6.60156H11.2411C10.6111 6.60156 10.1011 7.11158 10.1011 7.74158V17.4016H13.8911V7.74158C13.8911 7.11158 13.3911 6.60156 12.7611 6.60156Z" stroke="#9A9898" stroke-width="1.5" stroke-miterlimit="10" stroke-linecap="round" stroke-linejoin="round"/>
<path d="M16.5479 12.8516H13.8979V17.4016H17.688V13.9916C17.678 13.3616 17.1679 12.8516 16.5479 12.8516Z" stroke="#9A9898" stroke-width="1.5" stroke-miterlimit="10" stroke-linecap="round" stroke-linejoin="round"/>
<path d="M9 22H15C20 22 22 20 22 15V9C22 4 20 2 15 2H9C4 2 2 4 2 9V15C2 20 4 22 9 22Z" stroke="#9A9898" stroke-width="1.5" stroke-linecap="round" stroke-linejoin="round"/>
</svg>
