<svg width="77" height="51" viewBox="0 0 77 51" fill="none" xmlns="http://www.w3.org/2000/svg">
<path fill-rule="evenodd" clip-rule="evenodd" d="M1 50C3.17523 50 4.66693 28.5622 10.4281 28.5622C16.1893 28.5622 17.5253 16.141 21.3445 16.141C25.1637 16.141 24.6072 26.2997 31.8386 26.2997C36.0496 26.2997 36.0496 16.141 39.456 16.141C43.3907 16.141 42.8541 25.5856 50.1837 25.5856C58.6446 25.5856 56.5541 1 61.5628 1C67.4846 1 68.1874 50 77 50" fill="url(#paint0_linear_97_2439)"/>
<path d="M1 50C3.17523 50 4.66693 28.5622 10.4281 28.5622C16.1893 28.5622 17.5253 16.141 21.3445 16.141C25.1637 16.141 24.6072 26.2997 31.8386 26.2997C36.0496 26.2997 36.0496 16.141 39.456 16.141C43.3907 16.141 42.8541 25.5856 50.1837 25.5856C58.6446 25.5856 56.5541 1 61.5628 1C67.4846 1 68.1874 50 77 50" stroke="white"/>
<defs>
<linearGradient id="paint0_linear_97_2439" x1="-5.64606" y1="-4.11847" x2="-4.75562" y2="50.7106" gradientUnits="userSpaceOnUse">
<stop stop-color="white"/>
<stop offset="1" stop-color="white" stop-opacity="0.01"/>
</linearGradient>
</defs>
</svg>
