<svg width="32" height="30" viewBox="0 0 32 30" fill="none" xmlns="http://www.w3.org/2000/svg">
<path d="M31.9889 17.3654V12.1965C31.9889 10.3722 32.2124 6.55462 30.329 4.66273C28.1902 2.50058 24.9022 2.4668 22.093 2.4668L27.4879 5.7776L22.508 8.81813C23.2422 9.02083 23.9445 9.42623 24.4234 10.2708C24.6468 10.6424 24.7745 11.96 24.7745 13.3451V16.7573C24.7745 18.1762 24.6468 19.4262 24.4234 19.8316C23.4019 21.7235 21.1992 21.487 20.0181 21.487H17.0493V18.514L12.3567 21.3856L7.66418 24.2572L12.3567 27.1288L17.0493 30.0005V27.6694H21.7419C23.4018 27.6694 28.286 27.568 30.2971 25.4059C32.2443 23.3113 31.9889 19.5275 31.9889 17.3654Z" fill="url(#paint0_linear_1_2)"/>
<path d="M9.3879 21.2837C8.65369 21.081 7.98332 20.6418 7.53641 19.831C7.31295 19.4594 7.18527 18.2094 7.18527 16.7567V13.3445C7.18527 11.7905 7.31295 10.6756 7.53641 10.2702C8.55792 8.41212 10.7606 8.61483 11.9417 8.61483H15.0062V11.4864L19.6988 8.61483L24.3914 5.74322L19.6988 2.87161L15.0062 0V2.43243H10.3136C7.47257 2.43243 4.0888 2.33107 1.95001 4.62836C-0.156855 6.79051 0.00276372 10.3378 0.00276372 12.1621V17.331C0.00276372 19.0202 0.0346781 23.2769 1.95001 25.3377C3.86535 27.3647 7.85563 27.5674 10.154 27.6012L4.59957 24.2229L9.3879 21.2837Z" fill="url(#paint1_linear_1_2)"/>
<defs>
<linearGradient id="paint0_linear_1_2" x1="-26.9901" y1="-14.0442" x2="162.183" y2="90.1954" gradientUnits="userSpaceOnUse">
<stop stop-color="#00FF5B"/>
<stop offset="1" stop-color="#0014FF"/>
</linearGradient>
<linearGradient id="paint1_linear_1_2" x1="-29.0158" y1="-10.3687" x2="160.157" y2="93.8709" gradientUnits="userSpaceOnUse">
<stop stop-color="#00FF5B"/>
<stop offset="1" stop-color="#0014FF"/>
</linearGradient>
</defs>
</svg>
