<svg width="130" height="48" viewBox="0 0 130 48" fill="none" xmlns="http://www.w3.org/2000/svg">
<path d="M22.5232 20.8835H29.0169V32.5496H33.67V20.8835H40.2878V17.1055H22.5232V20.8835Z" fill="url(#paint0_linear_140_2911)"/>
<path d="M62.2089 26.2603V23.0843C62.2089 21.9633 62.3537 19.6176 61.1335 18.4552C59.7272 17.0851 57.5351 17.1059 55.7152 17.1059H48.1875C46.3469 17.1059 44.1548 17.0436 42.7692 18.4552C41.4042 19.7837 41.5076 21.9633 41.5076 23.0843V26.2603C41.5076 27.2982 41.5283 29.9137 42.7692 31.18C44.072 32.5085 46.8846 32.5708 48.3116 32.5708H55.6118C56.6872 32.5708 59.8513 32.5085 61.1542 31.18C62.395 29.9137 62.2089 27.5888 62.2089 26.2603ZM57.5558 25.8866C57.5558 26.7585 57.4731 27.5265 57.3283 27.7756C56.6665 28.9381 55.2395 28.7928 54.4744 28.7928H49.2422C48.477 28.7928 47.0707 28.9381 46.3883 27.7756C46.2435 27.5473 46.1608 26.7792 46.1608 25.8866V23.79C46.1608 22.8352 46.2435 22.1501 46.3883 21.901C47.05 20.7593 48.477 20.8839 49.2422 20.8839H54.4744C55.2395 20.8839 56.6458 20.7593 57.3283 21.901C57.4731 22.1294 57.5558 22.939 57.5558 23.79V25.8866Z" fill="url(#paint1_linear_140_2911)"/>
<path d="M70.0884 26.4075L76.1685 26.532C77.492 26.5735 78.6915 26.4697 79.0017 27.1132C79.1878 27.5284 79.1878 28.0474 79.0017 28.2965C78.5881 28.8154 77.2232 28.7739 76.5821 28.7739H71.1224C70.2331 28.7739 69.4266 28.8985 69.3025 27.4661H64.6907C64.67 28.4833 64.7321 30.1232 65.2284 30.8913C66.2624 32.4066 68.3512 32.5311 69.2611 32.5311H76.9543C78.5467 32.5311 82.0417 32.5104 83.2205 30.5384C83.9857 29.2929 84.0478 26.4905 83.386 25.2658C82.3106 23.2937 79.3739 23.5428 77.9677 23.4805L72.2598 23.356C71.3085 23.356 69.9229 23.4183 69.4886 22.7333C69.3645 22.4842 69.3232 21.8406 69.4679 21.5915C69.8815 20.782 70.8535 20.9065 71.4946 20.9065H76.7061C77.9677 20.9273 78.5467 21.0726 78.6501 22.4634H83.1999C83.1999 21.6746 83.2619 19.5987 82.7242 18.8099C81.7936 17.3569 79.953 17.1285 78.7122 17.1285H70.7708C68.62 17.1285 66.3659 16.9624 65.2077 18.9137C64.5046 20.1177 64.5046 23.3768 65.1457 24.6015C66.097 26.4282 68.5994 26.3867 70.0884 26.4075Z" fill="white"/>
<path d="M104.356 31.1381C105.742 29.7265 105.556 28.0036 105.556 26.2599V17.1055H100.882V24.8068C100.882 26.1976 101.006 27.5261 100.385 28.1904C99.703 28.8962 98.4208 28.7924 97.9865 28.7924H94.202C93.5402 28.7924 92.2994 28.9169 91.5549 28.1696C90.831 27.4223 90.9344 25.6786 90.9344 24.703V17.1262H86.2606V25.7824C86.2606 26.9864 86.1158 29.6227 87.5635 31.1381C89.0939 32.7157 90.4174 32.5704 92.0512 32.5704H98.9378C100.985 32.5496 102.888 32.6327 104.356 31.1381Z" fill="white"/>
<path d="M109.981 1.74636C109.981 1.74636 118.75 1.5803 121.128 7.72475C121.769 9.38541 121.79 11.2121 121.273 12.9143C120.673 14.8864 119.411 18.3322 117.157 20.9893L112.587 16.9414H108.079V32.0327H112.297V22.0272L117.467 26.4487C117.467 26.4487 125.884 17.9586 124.975 9.34389C124.975 9.34389 124.458 1.74636 115.586 0.314042V0.293283C112.173 -0.267191 107.789 0.147979 107.789 0.147979C103.136 0.833001 92.3199 2.92959 80.7388 13.2464C80.7388 13.2257 95.5461 1.66333 109.981 1.74636Z" fill="url(#paint2_linear_140_2911)"/>
<path d="M125.616 16.9414C125.616 16.9414 122.617 25.39 110.085 34.3784C110.105 34.4406 110.105 34.5237 110.105 34.5859V37.3675C110.105 37.8242 110.043 38.2601 109.898 38.6546C111.263 37.8035 112.773 36.8278 114.324 35.6861V34.5859C114.324 33.8802 114.903 33.2989 115.606 33.2989H116.351C116.62 33.2989 116.888 33.382 117.116 33.548C120.032 31.2023 123.031 28.3585 125.802 24.9956V31.9912H130V16.9414H125.616Z" fill="white"/>
<path d="M106.197 40.793C105.163 41.3327 104.149 41.8309 103.156 42.2876C103.674 42.0592 104.749 41.561 106.197 40.793Z" fill="white"/>
<path d="M2.19385 36.473C1.61479 36.4108 1.11846 36.2862 1.11846 35.871C1.11846 35.5182 1.44935 35.2275 2.13181 35.2275C2.64882 35.2275 3.12448 35.4974 3.28992 35.7673L4.01374 35.3936C3.64149 34.6463 2.85563 34.418 2.11113 34.418C1.22186 34.418 0.22919 34.8331 0.22919 35.8295C0.22919 36.9297 1.13914 37.1788 2.13181 37.3034C2.77291 37.3656 3.24856 37.5525 3.24856 38.0091C3.24856 38.5281 2.71086 38.7357 2.13181 38.7357C1.55275 38.7357 0.973693 38.5073 0.766887 37.9676L0.00170898 38.362C0.353279 39.2546 1.11846 39.566 2.11113 39.566C3.18652 39.566 4.13783 39.1093 4.13783 38.0091C4.13783 36.8674 3.2072 36.5976 2.19385 36.473Z" fill="white"/>
<path d="M13.2372 36.6825L11.7276 34.5859H10.6729V39.4641H11.5828V35.9145L13.1338 38.0318H13.32L14.8917 35.9145V39.4641H15.8016V34.5859H14.7676L13.2372 36.6825Z" fill="white"/>
<path d="M24.1568 34.5859L21.9854 39.4434H22.978L23.3916 38.53H25.9147L26.3283 39.4434H27.3209L25.1495 34.5859H24.1568ZM23.7639 37.6789L24.6738 35.6031L25.5838 37.6789H23.7639Z" fill="white"/>
<path d="M37.6196 36.2051C37.6196 35.354 37.0198 34.6067 35.8824 34.5859C35.1172 34.5859 34.352 34.5859 33.5662 34.5859V39.4641H34.4761V37.845H35.3654L36.7717 39.4641H37.8677V39.4019L36.3994 37.7412C37.3094 37.5336 37.6196 36.8693 37.6196 36.2051ZM34.4761 36.9939V35.437H35.8617C36.4408 35.437 36.6889 35.8314 36.6889 36.2258C36.6889 36.6203 36.4408 37.0147 35.8617 37.0147H34.4761V36.9939Z" fill="white"/>
<path d="M43.9687 35.4163H45.499V39.4434H46.409V35.4163H47.9393V34.5859C46.5331 34.5859 45.3543 34.5859 43.948 34.5859V35.4163H43.9687Z" fill="white"/>
<path d="M66.4073 39.4434L64.2152 34.5859H63.2225L61.051 39.4434H62.0437L62.4573 38.53H65.001L65.4146 39.4434H66.4073ZM62.8296 37.6789L63.7395 35.6031L64.6494 37.6789H62.8296Z" fill="white"/>
<path d="M74.7623 35.3562C75.1759 35.3562 75.6102 35.5015 75.9411 35.8129L76.5408 35.2317C76.0445 34.7335 75.4241 34.4844 74.7623 34.4844C73.0044 34.4844 72.1772 35.7714 72.1979 37.0584C72.1979 38.3247 72.9631 39.5702 74.7623 39.5702C75.4654 39.5702 76.1065 39.3418 76.6029 38.8436L75.9824 38.2209C75.6722 38.5322 75.1759 38.7191 74.7623 38.7191C73.5628 38.7191 73.1078 37.868 73.0872 37.0792C73.0872 36.2488 73.6042 35.3562 74.7623 35.3562Z" fill="white"/>
<path d="M85.1644 35.3562C85.578 35.3562 86.0123 35.5015 86.3432 35.8129L86.9429 35.2317C86.4466 34.7335 85.8262 34.4844 85.1644 34.4844C83.4065 34.4844 82.5793 35.7714 82.6 37.0584C82.6 38.3247 83.3652 39.5702 85.1644 39.5702C85.8675 39.5702 86.5086 39.3418 87.005 38.8436L86.3845 38.2209C86.0743 38.5322 85.578 38.7191 85.1644 38.7191C83.9649 38.7191 83.5099 37.868 83.4893 37.0792C83.4893 36.2488 83.9856 35.3562 85.1644 35.3562Z" fill="white"/>
<path d="M93.1057 37.0574C93.1057 38.3444 93.8916 39.5692 95.6081 39.5692C97.3039 39.5692 98.0897 38.3029 98.0897 37.0574C98.1104 35.7912 97.2625 34.5042 95.6081 34.5042C93.9329 34.4834 93.1057 35.7704 93.1057 37.0574ZM97.2005 37.0574C97.1798 37.867 96.7662 38.7181 95.6081 38.7181C94.4499 38.7181 94.0363 37.867 94.0157 37.0574C93.995 36.2271 94.4706 35.3137 95.6081 35.3137C96.7455 35.3137 97.2005 36.2479 97.2005 37.0574Z" fill="white"/>
<path d="M107.934 37.3676C107.934 38.1979 107.499 38.7168 106.755 38.7168C105.99 38.7168 105.493 38.2602 105.493 37.3676V34.5859H104.583V37.3676C104.583 38.8414 105.576 39.5472 106.734 39.5472C107.954 39.5472 108.823 38.8206 108.823 37.3676V34.5859H107.913V37.3676H107.934Z" fill="white"/>
<path d="M118.729 37.5959L116.351 34.5859H115.606V39.4434H116.537V36.1636L119.081 39.4641V39.4434H119.639V34.5859H118.729V37.5959Z" fill="white"/>
<path d="M126.009 35.4163H127.539V39.4434H128.449V35.4163H129.979V34.5859C128.573 34.5859 127.394 34.5859 125.988 34.5859V35.4163H126.009Z" fill="white"/>
<path d="M102.846 42.4344C100.137 43.6799 97.6555 44.6763 95.3806 45.4651C97.8002 44.6555 100.385 43.5968 103.177 42.2891C102.95 42.3929 102.846 42.4344 102.846 42.4344Z" fill="white"/>
<path d="M103.467 38.4688C103.467 38.4688 78.3192 53.4355 66.4072 41.2919C66.4072 41.2919 73.1284 53.0203 95.3807 45.4643C97.6556 44.6755 100.137 43.6791 102.846 42.4336C102.846 42.4336 102.971 42.3921 103.177 42.2883C104.17 41.8316 105.183 41.3334 106.217 40.7937C104.832 40.6069 103.818 39.735 103.467 38.4688Z" fill="white"/>
<path d="M20.7239 26.2599V23.0838C20.7239 21.9629 20.8687 19.6172 19.6485 18.4548C18.2629 17.1262 16.1328 17.1055 14.313 17.1055L17.808 19.1398L14.5818 21.008C15.0575 21.1326 15.5124 21.3817 15.8226 21.9006C15.9674 22.129 16.0501 22.9385 16.0501 23.7896V25.8862C16.0501 26.7581 15.9674 27.5261 15.8226 27.7752C15.1609 28.9377 13.7339 28.7924 12.9687 28.7924H11.0454V26.9656L8.00537 28.7301L4.96533 30.4946L8.00537 32.259L11.0454 34.0235V32.5911H14.0855C15.1609 32.5911 18.325 32.5289 19.6279 31.2003C20.8894 29.9133 20.7239 27.5884 20.7239 26.2599Z" fill="url(#paint3_linear_140_2911)"/>
<path d="M6.08188 28.6676C5.60623 28.543 5.17193 28.2732 4.8824 27.775C4.73764 27.5466 4.65492 26.7785 4.65492 25.8859V23.7894C4.65492 22.8345 4.73764 22.1495 4.8824 21.9004C5.54418 20.7587 6.97115 20.8832 7.73633 20.8832H9.72167V22.6477L12.7617 20.8832L15.8018 19.1188L12.7617 17.3543L9.72167 15.5898V17.0844H6.68162C4.84105 17.0844 2.6489 17.0222 1.2633 18.4337C-0.101618 19.7623 0.00179046 21.9419 0.00179046 23.0628V26.2388C0.00179046 27.2767 0.022466 29.8923 1.2633 31.1585C2.50414 32.404 5.08921 32.5286 6.57822 32.5494L2.97979 30.4735L6.08188 28.6676Z" fill="url(#paint4_linear_140_2911)"/>
<defs>
<linearGradient id="paint0_linear_140_2911" x1="-12.004" y1="-2.47401" x2="107.444" y2="66.9224" gradientUnits="userSpaceOnUse">
<stop stop-color="#00FF5B"/>
<stop offset="1" stop-color="#0014FF"/>
</linearGradient>
<linearGradient id="paint1_linear_140_2911" x1="-7.60491" y1="-10.0461" x2="111.843" y2="59.3503" gradientUnits="userSpaceOnUse">
<stop stop-color="#00FF5B"/>
<stop offset="1" stop-color="#0014FF"/>
</linearGradient>
<linearGradient id="paint2_linear_140_2911" x1="118.051" y1="37.2618" x2="78.6367" y2="-31.6638" gradientUnits="userSpaceOnUse">
<stop stop-color="#00FF5B"/>
<stop offset="1" stop-color="#0014FF"/>
</linearGradient>
<linearGradient id="paint3_linear_140_2911" x1="-17.4852" y1="6.96032" x2="101.963" y2="76.3567" gradientUnits="userSpaceOnUse">
<stop stop-color="#00FF5B"/>
<stop offset="1" stop-color="#0014FF"/>
</linearGradient>
<linearGradient id="paint4_linear_140_2911" x1="-18.7977" y1="9.2188" x2="100.65" y2="78.6152" gradientUnits="userSpaceOnUse">
<stop stop-color="#00FF5B"/>
<stop offset="1" stop-color="#0014FF"/>
</linearGradient>
</defs>
</svg>
